<?xml version="1.0" encoding="UTF-8" standalone="no"?>
<!-- Created with Inkscape (http://www.inkscape.org/) -->

<svg
   xmlns:dc="http://purl.org/dc/elements/1.1/"
   xmlns:cc="http://creativecommons.org/ns#"
   xmlns:rdf="http://www.w3.org/1999/02/22-rdf-syntax-ns#"
   xmlns:svg="http://www.w3.org/2000/svg"
   xmlns="http://www.w3.org/2000/svg"
   xmlns:sodipodi="http://sodipodi.sourceforge.net/DTD/sodipodi-0.dtd"
   xmlns:inkscape="http://www.inkscape.org/namespaces/inkscape"
   width="142mm"
   height="38mm"
   viewBox="0 0 142 38"
   version="1.1"
   id="svg8"
   inkscape:version="0.92.4 (5da689c313, 2019-01-14)"
   sodipodi:docname="logo.svg">
  <defs
     id="defs2" />
  <sodipodi:namedview
     id="base"
     pagecolor="#ffffff"
     bordercolor="#666666"
     borderopacity="1.0"
     inkscape:pageopacity="0.0"
     inkscape:pageshadow="2"
     inkscape:zoom="0.49497475"
     inkscape:cx="-10.168646"
     inkscape:cy="896.63052"
     inkscape:document-units="mm"
     inkscape:current-layer="layer1"
     showgrid="false"
     inkscape:window-width="1858"
     inkscape:window-height="1057"
     inkscape:window-x="-8"
     inkscape:window-y="440"
     inkscape:window-maximized="1" />
  <metadata
     id="metadata5">
    <rdf:RDF>
      <cc:Work
         rdf:about="">
        <dc:format>image/svg+xml</dc:format>
        <dc:type
           rdf:resource="http://purl.org/dc/dcmitype/StillImage" />
        <dc:title></dc:title>
      </cc:Work>
    </rdf:RDF>
  </metadata>
  <g
     inkscape:label="Layer 1"
     inkscape:groupmode="layer"
     id="layer1"
     transform="translate(0,-259)">
    <g
       id="layer1-4"
       inkscape:label="Layer 1"
       transform="translate(-34.327609,238.72376)">
      <path
         inkscape:connector-curvature="0"
         id="path837"
         d="m 48.440269,57.201748 c 0,-0.12044 9.640784,-17.01404 10.81708,-18.95482 l 0.427711,-0.70569 5.55625,9.67105 c 3.055938,5.31908 5.595938,9.77407 5.644444,9.89996 0.04878,0.12662 -4.946632,0.22891 -11.178645,0.22891 -6.196762,0 -11.26684,-0.0627 -11.26684,-0.13941 z m 52.137801,-7.40951 c -1.633157,-0.45806 -2.839715,-1.28812 -3.909851,-2.68982 -0.674336,-0.88327 -0.742662,-1.18757 -0.824807,-3.67334 -0.10532,-3.18717 0.180319,-4.01531 1.946463,-5.64328 3.996325,-3.68369 10.975395,-1.3093 10.975395,3.734 0,1.02038 -0.13706,1.43038 -0.64943,1.94276 -0.62591,0.62591 -0.77988,0.64943 -4.25117,0.64943 h -3.60173 l 0.17777,0.59531 c 0.50782,1.70055 2.76535,2.28016 5.01137,1.28664 1.59659,-0.70625 1.76533,-0.70028 2.50639,0.0885 0.66305,0.70578 0.79287,1.77431 0.28929,2.38108 -1.14697,1.38202 -5.0616,2.06018 -7.66969,1.32868 z m 3.90112,-8.90513 c 0.14602,-0.76495 -0.89112,-1.53762 -2.06392,-1.53762 -1.18412,0 -2.11667,0.70432 -2.11667,1.59863 0,0.50412 0.1371,0.53512 2.04765,0.46302 1.67356,-0.0632 2.06324,-0.1589 2.13294,-0.52403 z m 8.7678,8.94915 c -2.46438,-0.66455 -3.56455,-2.02415 -2.84991,-3.52195 0.45813,-0.96017 1.42579,-1.08503 2.83546,-0.36587 1.08969,0.55592 3.04784,0.72054 3.6947,0.31061 0.19622,-0.12435 0.31487,-0.44362 0.26367,-0.70948 -0.0676,-0.35117 -0.7081,-0.6728 -2.34162,-1.17594 -3.5661,-1.09838 -4.23194,-1.75978 -4.23194,-4.20371 0,-2.66137 1.91334,-4.11588 5.42396,-4.12327 1.73438,-0.004 2.3556,0.11501 3.43958,0.65701 1.17315,0.58657 1.33183,0.76723 1.40159,1.59576 0.0608,0.72174 -0.0751,1.07873 -0.59707,1.56912 -0.67408,0.63327 -0.67916,0.63373 -2.08629,0.19017 -2.08688,-0.65783 -3.61302,-0.55189 -3.61302,0.2508 0,0.43227 0.47658,0.64917 3.0806,1.40204 2.97826,0.86106 4.23225,2.71771 3.54909,5.25477 -0.68636,2.54893 -4.31414,3.85546 -7.9688,2.86994 z m 12.43542,0 c -2.46439,-0.66455 -3.56456,-2.02415 -2.84991,-3.52195 0.45812,-0.96017 1.42579,-1.08503 2.83545,-0.36587 1.0897,0.55592 3.04785,0.72054 3.6947,0.31061 0.19622,-0.12435 0.31488,-0.44362 0.26368,-0.70948 -0.0676,-0.35117 -0.7081,-0.6728 -2.34163,-1.17594 -3.56609,-1.09838 -4.23193,-1.75978 -4.23193,-4.20371 0,-2.66137 1.91334,-4.11588 5.42396,-4.12327 1.73437,-0.004 2.3556,0.11501 3.43958,0.65701 1.17314,0.58657 1.33182,0.76723 1.40158,1.59576 0.0608,0.72174 -0.0751,1.07873 -0.59706,1.56912 -0.67409,0.63327 -0.67916,0.63373 -2.0863,0.19017 -2.08687,-0.65783 -3.61301,-0.55189 -3.61301,0.2508 0,0.43227 0.47658,0.64917 3.08059,1.40204 2.97827,0.86106 4.23225,2.71771 3.54909,5.25477 -0.68635,2.54893 -4.31413,3.85546 -7.96879,2.86994 z m 29.92899,-0.044 c -1.63315,-0.45806 -2.83971,-1.28812 -3.90985,-2.68982 -0.67433,-0.88327 -0.74266,-1.18756 -0.8248,-3.67334 -0.10532,-3.18717 0.18031,-4.01531 1.94646,-5.64328 3.99633,-3.68369 10.97539,-1.3093 10.97539,3.734 0,1.02038 -0.13705,1.43038 -0.64943,1.94276 -0.62591,0.62591 -0.77988,0.64943 -4.25116,0.64943 h -3.60174 l 0.17778,0.59531 c 0.50781,1.70056 2.76535,2.28016 5.01137,1.28664 1.59658,-0.70624 1.76533,-0.70028 2.50638,0.0885 0.66305,0.70578 0.79287,1.77431 0.2893,2.38109 -1.14698,1.38201 -5.06161,2.06017 -7.6697,1.32867 z m 3.90112,-8.90513 c 0.14602,-0.76495 -0.89111,-1.53762 -2.06392,-1.53762 -1.18412,0 -2.11667,0.70432 -2.11667,1.59863 0,0.50412 0.13711,0.53512 2.04766,0.46302 1.67355,-0.0632 2.06323,-0.15889 2.13293,-0.52403 z m -85.084212,8.63384 -0.58804,-0.41188 v -9.86587 c 0,-9.22187 0.03158,-9.89445 0.483855,-10.30374 0.419528,-0.37967 1.261742,-0.43789 6.334998,-0.43789 5.746466,0 5.858509,0.0105 6.26302,0.58804 0.226531,0.32342 0.411877,0.95177 0.411877,1.39634 0,0.44456 -0.185346,1.07291 -0.411877,1.39633 -0.39539,0.5645 -0.575458,0.58804 -4.497916,0.58804 h -4.08604 v 2.51354 2.51355 h 2.472534 c 2.74533,0 3.348299,0.30467 3.348299,1.69187 0,1.58655 -0.293634,1.74771 -3.184308,1.74771 h -2.636525 v 4.08604 c 0,3.92246 -0.02355,4.10253 -0.588039,4.49792 -0.323419,0.22653 -1.070835,0.41187 -1.660919,0.41187 -0.590085,0 -1.337501,-0.18534 -1.660919,-0.41187 z m 15.081249,0 -0.588039,-0.41188 v -10.42104 -10.42104 l 0.588039,-0.41187 c 0.756322,-0.52975 2.565517,-0.52975 3.321839,0 l 0.588039,0.41187 v 10.42104 10.42104 l -0.588039,0.41188 c -0.323419,0.22653 -1.070835,0.41187 -1.66092,0.41187 -0.590084,0 -1.3375,-0.18534 -1.660919,-0.41187 z m 46.831253,0 c -0.57854,-0.40523 -0.58804,-0.50974 -0.58804,-6.46729 0,-5.95756 0.01,-6.06207 0.58804,-6.46729 1.21491,-0.85096 3.64529,-0.25098 3.64529,0.8999 0,0.41674 0.11731,0.37844 0.80305,-0.26214 2.74773,-2.56675 6.57058,-1.06406 7.81537,3.07208 0.50824,1.68875 0.52658,8.27314 0.025,8.95916 -0.50773,0.69436 -2.85925,0.88762 -3.74428,0.30773 -0.6607,-0.43291 -0.66576,-0.46541 -0.66576,-4.27861 0,-3.72679 -0.0195,-3.86192 -0.64943,-4.49182 -0.77881,-0.77881 -1.7128,-0.83139 -2.5624,-0.14424 -0.5987,0.48422 -0.62816,0.6708 -0.70981,4.49624 -0.0797,3.73413 -0.12181,4.01672 -0.65418,4.38961 -0.73993,0.51826 -2.5543,0.51094 -3.3028,-0.0133 z m 30.1625,0 c -0.57854,-0.40523 -0.58804,-0.50974 -0.58804,-6.46729 0,-5.95756 0.01,-6.06207 0.58804,-6.46729 1.30755,-0.91585 3.64529,-0.23713 3.64529,1.05833 0,0.61843 0.0452,0.60121 1.04358,-0.39712 1.09827,-1.09828 2.37611,-1.53285 3.60232,-1.22508 0.94772,0.23786 1.53167,1.66077 1.14122,2.78082 -0.34281,0.98338 -0.92868,1.33992 -2.20173,1.33992 -0.70036,0 -1.19138,0.22417 -1.88347,0.8599 -1.14857,1.05502 -1.42259,2.11611 -1.43102,5.54124 -0.006,2.3466 -0.0563,2.59971 -0.59436,2.97657 -0.32341,0.22653 -1.07083,0.41187 -1.66091,0.41187 -0.59009,0 -1.3375,-0.18534 -1.66092,-0.41187 z m -124.103693,-8.9819 c -2.782829,-0.78114 -5.214537,-2.88719 -6.466285,-5.6003 -0.478848,-1.03788 -0.589579,-1.7508 -0.58974,-3.79691 -1.81e-4,-2.30758 0.072,-2.66577 0.85968,-4.26576 1.019429,-2.07076 2.68004,-3.69655 4.782323,-4.68207 1.295645,-0.60737 1.846225,-0.7039 4.015091,-0.7039 2.199224,0 2.696617,0.0899 3.977569,0.71902 4.874564,2.39401 6.965199,8.23931 4.693045,13.12151 -0.881139,1.89331 -3.206638,4.08195 -5.083227,4.78407 -2.052235,0.76784 -4.392958,0.92834 -6.188456,0.42434 z"
         style="fill:#ffffff;fill-opacity:1;stroke-width:0.26458335" />
    </g>
  </g>
</svg>
